HIERARCHY
ROOT hip
{
  OFFSET 0.0 0.0 0.0
  CHANNELS 6 Xposition Yposition Zposition Zrotation Yrotation Xrotation
  JOINT abdomen
  {
    OFFSET 0.0 20.6881 -0.73152
    CHANNELS 3 Zrotation Xrotation Yrotation
    JOINT chest
    {
      OFFSET 0.0 11.7043 -0.48768
      CHANNELS 3 Zrotation Xrotation Yrotation
      JOINT neck
      {
        OFFSET 0.0 22.1894 -2.19456
        CHANNELS 3 Zrotation Xrotation Yrotation
        JOINT head
        {
          OFFSET -0.24384 7.07133 1.2192
          CHANNELS 3 Zrotation Xrotation Yrotation
          JOINT leftEye
          {
            OFFSET 4.14528 8.04674 8.04672
            CHANNELS 3 Zrotation Xrotation Yrotation
            End Site
            {
              OFFSET 1.0 0.0 0.0
            }
          }
          JOINT rightEye
          {
            OFFSET -3.6576 8.04674 8.04672
            CHANNELS 3 Zrotation Xrotation Yrotation
            End Site
            {
              OFFSET 1.0 0.0 0.0
            }
          }
        }
      }
      JOINT rCollar
      {
        OFFSET -2.68224 19.2634 -4.8768
        CHANNELS 3 Zrotation Xrotation Yrotation
        JOINT rShldr
        {
          OFFSET -8.77824 -1.95073 1.46304
          CHANNELS 3 Zrotation Xrotation Yrotation
          JOINT rForeArm
          {
            OFFSET -28.1742 -1.7115 0.48768
            CHANNELS 3 Zrotation Xrotation Yrotation
            JOINT rHand
            {
              OFFSET -22.5879 0.773209 7.07136
              CHANNELS 3 Zrotation Xrotation Yrotation
              JOINT rThumb1
              {
                OFFSET -1.2192 -0.487915 3.41376
                CHANNELS 3 Zrotation Xrotation Yrotation
                JOINT rThumb2
                {
                  OFFSET -3.37035 -0.52449 3.41376
                  CHANNELS 3 Zrotation Xrotation Yrotation
                  End Site
                  {
                    OFFSET -1.78271 -1.18214 1.43049
                  }
                }
              }
              JOINT rIndex1
              {
                OFFSET -7.75947 0.938293 5.60832
                CHANNELS 3 Zrotation Xrotation Yrotation
                JOINT rIndex2
                {
                  OFFSET -2.54057 -0.884171 1.56538
                  CHANNELS 3 Zrotation Xrotation Yrotation
                  End Site
                  {
                    OFFSET -1.62519 -0.234802 1.16502
                  }
                }
              }
              JOINT rMid1
              {
                OFFSET -8.24714 1.18213 3.41376
                CHANNELS 3 Zrotation Xrotation Yrotation
                JOINT rMid2
                {
                  OFFSET -3.10165 -0.590103 1.0647
                  CHANNELS 3 Zrotation Xrotation Yrotation
                  End Site
                  {
                    OFFSET -2.48547 -0.328903 0.83742
                  }
                }
              }
              JOINT rRing1
              {
                OFFSET -8.82822 0.546677 1.51678
                CHANNELS 3 Zrotation Xrotation Yrotation
                JOINT rRing2
                {
                  OFFSET -2.60934 -0.819778 -0.0198488
                  CHANNELS 3 Zrotation Xrotation Yrotation
                  End Site
                  {
                    OFFSET -2.33842 -0.294052 0.168128
                  }
                }
              }
              JOINT rPinky1
              {
                OFFSET -8.27202 -0.0477905 -0.4584
                CHANNELS 3 Zrotation Xrotation Yrotation
                JOINT rPinky2
                {
                  OFFSET -1.82734 -0.647385 -0.700984
                  CHANNELS 3 Zrotation Xrotation Yrotation
                  End Site
                  {
                    OFFSET -1.69225 -0.51767 -0.607171
                  }
                }
              }
            }
          }
        }
      }
      JOINT lCollar
      {
        OFFSET 2.68224 19.2634 -4.8768
        CHANNELS 3 Zrotation Xrotation Yrotation
        JOINT lShldr
        {
          OFFSET 8.77824 -1.95073 1.46304
          CHANNELS 3 Zrotation Xrotation Yrotation
          JOINT lForeArm
          {
            OFFSET 28.1742 -1.7115 0.48768
            CHANNELS 3 Zrotation Xrotation Yrotation
            JOINT lHand
            {
              OFFSET 22.5879 0.773209 7.07136
              CHANNELS 3 Zrotation Xrotation Yrotation
              JOINT lThumb1
              {
                OFFSET 1.2192 -0.487915 3.41376
                CHANNELS 3 Zrotation Xrotation Yrotation
                JOINT lThumb2
                {
                  OFFSET 3.37035 -0.52449 3.41376
                  CHANNELS 3 Zrotation Xrotation Yrotation
                  End Site
                  {
                    OFFSET 1.78271 -1.18214 1.43049
                  }
                }
              }
              JOINT lIndex1
              {
                OFFSET 7.75947 0.938293 5.60832
                CHANNELS 3 Zrotation Xrotation Yrotation
                JOINT lIndex2
                {
                  OFFSET 2.54057 -0.884171 1.56538
                  CHANNELS 3 Zrotation Xrotation Yrotation
                  End Site
                  {
                    OFFSET 1.62519 -0.234802 1.16502
                  }
                }
              }
              JOINT lMid1
              {
                OFFSET 8.24714 1.18213 3.41376
                CHANNELS 3 Zrotation Xrotation Yrotation
                JOINT lMid2
                {
                  OFFSET 3.10165 -0.590103 1.0647
                  CHANNELS 3 Zrotation Xrotation Yrotation
                  End Site
                  {
                    OFFSET 2.48547 -0.328903 0.83742
                  }
                }
              }
              JOINT lRing1
              {
                OFFSET 8.82822 0.546677 1.51678
                CHANNELS 3 Zrotation Xrotation Yrotation
                JOINT lRing2
                {
                  OFFSET 2.60934 -0.819778 -0.0198488
                  CHANNELS 3 Zrotation Xrotation Yrotation
                  End Site
                  {
                    OFFSET 2.33842 -0.294052 0.168128
                  }
                }
              }
              JOINT lPinky1
              {
                OFFSET 8.27202 -0.0477905 -0.4584
                CHANNELS 3 Zrotation Xrotation Yrotation
                JOINT lPinky2
                {
                  OFFSET 1.82734 -0.647385 -0.700984
                  CHANNELS 3 Zrotation Xrotation Yrotation
                  End Site
                  {
                    OFFSET 1.69225 -0.51767 -0.607171
                  }
                }
              }
            }
          }
        }
      }
    }
  }
  JOINT rButtock
  {
    OFFSET -8.77824 4.35084 1.2192
    CHANNELS 3 Zrotation Xrotation Yrotation
    JOINT rThigh
    {
      OFFSET 0.0 -1.70687 -2.19456
      CHANNELS 3 Zrotation Xrotation Yrotation
      JOINT rShin
      {
        OFFSET 0.0 -36.8199 0.73152
        CHANNELS 3 Zrotation Xrotation Yrotation
        JOINT rFoot
        {
          OFFSET 0.73152 -45.1104 -5.12064
          CHANNELS 3 Zrotation Xrotation Yrotation
          End Site
          {
            OFFSET -1.1221 -3.69964 12.103
          }
        }
      }
    }
  }
  JOINT lButtock
  {
    OFFSET 8.77824 4.35084 1.2192
    CHANNELS 3 Zrotation Xrotation Yrotation
    JOINT lThigh
    {
      OFFSET 0.0 -1.70687 -2.19456
      CHANNELS 3 Zrotation Xrotation Yrotation
      JOINT lShin
      {
        OFFSET 0.0 -36.8199 0.73152
        CHANNELS 3 Zrotation Xrotation Yrotation
        JOINT lFoot
        {
          OFFSET -0.73152 -45.1104 -5.12064
          CHANNELS 3 Zrotation Xrotation Yrotation
          End Site
          {
            OFFSET 1.1221 -3.69964 12.103
          }
        }
      }
    }
  }
}
MOTION
Frames: 8
Frame Time: 0.00833333
-0.88612 84.668 81.66560999999999 -1.109 3.9976 1.619 1.56016 7.07919 -0.133103 4.09163 -4.47409 0.285886 3.82397 0.894675 -0.958717 -6.67497 -6.22746 -3.26245 -0.0 0.0 0.0 -0.0 0.0 0.0 4.67415e-15 -1.81295e-13 -2.36554e-14 76.0487 -8.58374 -16.4176 -6.33875 -2.19691 11.0928 -0.302686 15.4667 2.22866 -6.46577e-10 -1.53058e-09 2.72148e-09 -1.08515e-09 -2.63963e-09 4.71055e-09 -6.46559e-10 -1.53057e-09 2.72147e-09 7.73091 5.47488 0.417314 -6.46576e-10 -1.53058e-09 2.72149e-09 2.90554 0.965183 0.102902 -6.46571e-10 -1.53058e-09 2.72148e-09 10.2786 0.731801 0.0259123 -6.46579e-10 -1.53058e-09 2.72149e-09 2.22167 -0.733487 -0.20892 4.47021e-15 -1.81289e-13 -2.40529e-14 -74.3123 22.8939 -9.84343 20.4452 -13.5821 -39.7719 0.923119 -26.1998 3.9654 -7.89255e-11 -1.00617e-09 6.43394e-10 -1.54785e-10 -1.77285e-09 1.11145e-09 -7.89267e-11 -1.00617e-09 6.43407e-10 -7.73091 5.47488 -0.417314 -7.89224e-11 -1.00617e-09 6.43401e-10 -2.90554 0.965183 -0.102902 -7.89249e-11 -1.00617e-09 6.43398e-10 -10.2786 0.731801 -0.0259123 -7.89209e-11 -1.00617e-09 6.43391e-10 -2.22167 -0.733487 0.20892 -2.03217e-16 0.0 -3.88251e-19 3.12986 -18.9118 -0.51706 -0.194506 32.1235 0.264515 -4.15167 -4.47173 -22.2341 2.03217e-16 0.0 3.88251e-19 7.01064 -21.4898 4.29078 1.66866 66.5182 -1.91057 -0.00848299 12.344 5.22689
-0.9264800000000002 84.6912 83.34478999999999 -1.4284 4.0211 1.5133 2.01203 6.92367 0.0306214 3.897 -4.45646 0.324274 3.84791 0.967953 -0.987022 -6.77465 -6.19047 -3.32273 -0.0 0.0 0.0 -0.0 0.0 0.0 1.8423e-14 -1.58549e-13 -8.06399e-16 77.0536 -5.57739 -14.7449 -6.6717 -2.35283 11.6905 -0.223792 13.3971 1.91833 -7.50368e-10 -1.38648e-09 2.44341e-09 -1.26867e-09 -2.3922e-09 4.23031e-09 -7.50352e-10 -1.38648e-09 2.4434e-09 7.73091 5.47488 0.417314 -7.50367e-10 -1.38649e-09 2.44341e-09 2.90554 0.965183 0.102902 -7.50362e-10 -1.38649e-09 2.44341e-09 10.2786 0.731801 0.0259123 -7.5037e-10 -1.38649e-09 2.44342e-09 2.22167 -0.733487 -0.20892 1.82478e-14 -1.58544e-13 -1.13564e-15 -74.7863 23.0067 -8.48026 20.0682 -13.0989 -38.8421 0.795168 -24.5184 3.67396 -1.8512e-10 -1.17047e-09 5.99078e-10 -3.36291e-10 -2.0526e-09 1.03355e-09 -1.85125e-10 -1.17046e-09 5.99092e-10 -7.73091 5.47488 -0.417314 -1.85118e-10 -1.17047e-09 5.99084e-10 -2.90554 0.965183 -0.102902 -1.8512e-10 -1.17046e-09 5.99081e-10 -10.2786 0.731801 -0.0259123 -1.85117e-10 -1.17046e-09 5.99074e-10 -2.22167 -0.733487 0.20892 -2.03217e-16 0.0 -3.88251e-19 3.70819 -17.3873 -0.276733 -0.180284 31.6633 0.301579 -4.39993 -4.93508 -22.69 2.03217e-16 0.0 3.88251e-19 7.66906 -23.3259 5.00442 1.71743 66.9871 -1.97093 0.137909 10.2099 6.57358
-0.96025 84.677 85.01899999999999 -1.7626 4.0768 1.4039 2.44791 6.77871 0.152168 3.69939 -4.43553 0.348624 3.87017 1.02956 -1.01405 -6.91882 -6.20379 -3.38638 -0.0 0.0 0.0 -0.0 0.0 0.0 3.80275e-14 -1.06027e-13 3.21255e-14 77.8946 -2.46602 -13.1154 -7.05374 -2.53354 12.3831 -0.156141 11.28 1.60588 -8.45359e-10 -1.04303e-09 1.78679e-09 -1.44175e-09 -1.8012e-09 3.09531e-09 -8.45348e-10 -1.04302e-09 1.78678e-09 7.73091 5.47488 0.417314 -8.45359e-10 -1.04303e-09 1.78679e-09 2.90554 0.965183 0.102902 -8.45352e-10 -1.04303e-09 1.78679e-09 10.2786 0.731801 0.0259123 -8.45363e-10 -1.04303e-09 1.78681e-09 2.22167 -0.733487 -0.20892 3.79231e-14 -1.06026e-13 3.1908e-14 -75.239 23.1237 -7.10939 19.6645 -12.5954 -37.8706 0.670316 -22.6867 3.36596 -3.0445e-10 -1.25962e-09 4.81338e-10 -5.38349e-10 -2.1998e-09 8.28959e-10 -3.0446e-10 -1.25962e-09 4.81353e-10 -7.73091 5.47488 -0.417314 -3.04448e-10 -1.25962e-09 4.81343e-10 -2.90554 0.965183 -0.102902 -3.04453e-10 -1.25962e-09 4.81341e-10 -10.2786 0.731801 -0.0259123 -3.04449e-10 -1.25962e-09 4.81334e-10 -2.22167 -0.733487 0.20892 -2.03217e-16 0.0 -3.88251e-19 4.18817 -15.888 -0.180973 -0.166719 31.2471 0.343099 -4.66158 -5.4528 -23.0487 2.03217e-16 0.0 3.88251e-19 8.24085 -25.1201 5.65887 1.73436 67.179 -2.00409 0.369148 8.21592 7.96839
-0.9930100000000002 84.6309 86.69576599999999 -2.1252 4.1371 1.2723 2.90166 6.66762 0.267163 3.50031 -4.42592 0.370871 3.88419 1.06796 -1.04173 -7.06395 -6.22324 -3.45111 -0.0 0.0 0.0 -0.0 0.0 0.0 5.47173e-14 -4.64123e-14 6.41519e-14 78.5258 0.609073 -11.548 -7.48062 -2.74283 13.1587 -0.102499 9.17544 1.30014 -8.68448e-10 -6.44233e-10 1.01806e-09 -1.49149e-09 -1.11455e-09 1.76604e-09 -8.68442e-10 -6.44233e-10 1.01805e-09 7.73091 5.47488 0.417314 -8.68449e-10 -6.44237e-10 1.01806e-09 2.90554 0.965183 0.102902 -8.68441e-10 -6.44238e-10 1.01806e-09 10.2786 0.731801 0.0259123 -8.68453e-10 -6.44238e-10 1.01808e-09 2.22167 -0.733487 -0.20892 5.46924e-14 -4.64138e-14 6.40432e-14 -75.6619 23.2589 -5.76768 19.2346 -12.077 -36.8548 0.561683 -20.8649 3.06915 -3.71088e-10 -1.24932e-09 3.66924e-10 -6.49118e-10 -2.1751e-09 6.30881e-10 -3.71103e-10 -1.24933e-09 3.66939e-10 -7.73091 5.47488 -0.417314 -3.71087e-10 -1.24932e-09 3.66927e-10 -2.90554 0.965183 -0.102902 -3.71094e-10 -1.24932e-09 3.66926e-10 -10.2786 0.731801 -0.0259123 -3.71089e-10 -1.24932e-09 3.66918e-10 -2.22167 -0.733487 0.20892 -2.03217e-16 0.0 -3.88251e-19 4.65286 -14.3657 -0.159409 -0.153348 30.7884 0.384374 -4.91815 -5.95884 -23.3726 2.03217e-16 0.0 3.88251e-19 8.79201 -26.8429 6.26843 1.71984 67.0981 -2.00751 0.666277 6.40574 9.30579
-1.0333700000000001 84.5574 88.36649999999999 -2.5409 4.1948 1.1255 3.40725 6.61366 0.411214 3.30125 -4.4423 0.402951 3.88335 1.07161 -1.07199 -7.16629 -6.20466 -3.51457 -0.0 0.0 0.0 -0.0 0.0 0.0 5.97218e-14 -2.38386e-15 8.42847e-14 78.9206 3.50259 -10.0559 -7.94776 -2.98437 14.0051 -0.0630002 7.14362 1.00926 -7.56533e-10 -3.34133e-10 4.03625e-10 -1.30498e-09 -5.80175e-10 7.03019e-10 -7.5653e-10 -3.34134e-10 4.03616e-10 7.73091 5.47488 0.417314 -7.56534e-10 -3.34137e-10 4.03622e-10 2.90554 0.965183 0.102902 -7.56525e-10 -3.34137e-10 4.03627e-10 10.2786 0.731801 0.0259123 -7.56539e-10 -3.34138e-10 4.03644e-10 2.22167 -0.733487 -0.20892 5.97518e-14 -2.38658e-15 8.4235e-14 -76.0478 23.4276 -4.49162 18.779 -11.5494 -35.7922 0.475275 -19.2136 2.80742 -3.19208e-10 -1.11527e-09 3.32584e-10 -5.56753e-10 -1.93917e-09 5.72526e-10 -3.19224e-10 -1.11527e-09 3.326e-10 -7.73091 5.47488 -0.417314 -3.19206e-10 -1.11527e-09 3.32587e-10 -2.90554 0.965183 -0.102902 -3.19215e-10 -1.11527e-09 3.32587e-10 -10.2786 0.731801 -0.0259123 -3.19209e-10 -1.11526e-09 3.32578e-10 -2.22167 -0.733487 0.20892 -2.03217e-16 0.0 -3.88251e-19 5.17761 -12.7721 -0.144114 -0.139601 30.201 0.420672 -5.15178 -6.38673 -23.7232 2.03217e-16 0.0 3.88251e-19 9.38932 -28.4642 6.84682 1.67638 66.749 -1.98073 0.993583 4.82125 10.4801
-1.07726 84.4703 90.03818 -2.9975 4.2386 0.9569 3.98879 6.6443 0.591775 3.09871 -4.49447 0.447649 3.85748 1.02405 -1.10728 -7.20891 -6.11853 -3.57722 -0.0 0.0 0.0 -0.0 0.0 0.0 4.83945e-14 2.02273e-14 8.87263e-14 79.1022 6.18816 -8.63438 -8.46263 -3.26152 14.9436 -0.0332851 5.17741 0.730215 -4.08743e-10 -1.4371e-10 -2.76807e-11 -7.06745e-10 -2.51215e-10 -4.44013e-11 -4.08741e-10 -1.43712e-10 -2.76904e-11 7.73091 5.47488 0.417314 -4.08744e-10 -1.43713e-10 -2.76832e-11 2.90554 0.965183 0.102902 -4.08736e-10 -1.43714e-10 -2.768e-11 10.2786 0.731801 0.0259123 -4.0875e-10 -1.43713e-10 -2.76631e-11 2.22167 -0.733487 -0.20892 4.84494e-14 2.0226e-14 8.86595e-14 -76.3868 23.656 -3.30472 18.2902 -11.0049 -34.6678 0.40744 -17.7992 2.58713 -4.79297e-11 -7.70312e-10 4.34862e-10 -8.78066e-11 -1.34305e-09 7.52864e-10 -4.79437e-11 -7.70319e-10 4.34877e-10 -7.73091 5.47488 -0.417314 -4.79288e-11 -7.70312e-10 4.34866e-10 -2.90554 0.965183 -0.102902 -4.79372e-11 -7.70311e-10 4.34864e-10 -10.2786 0.731801 -0.0259123 -4.79307e-11 -7.70309e-10 4.34855e-10 -2.22167 -0.733487 0.20892 -2.03217e-16 0.0 -3.88251e-19 5.78568 -11.095 -0.133733 -0.125325 29.4958 0.45302 -5.3711 -6.74849 -24.1151 2.03217e-16 0.0 3.88251e-19 10.0362 -29.9831 7.38671 1.6067 66.1361 -1.92735 1.31701 3.48936 11.4709
-1.1344500000000002 84.3806 91.70441 -3.5128 4.2529 0.7819 4.6222 6.74 0.790644 2.89328 -4.57265 0.498741 3.81276 0.935888 -1.14593 -7.2167 -5.99433 -3.63994 -0.0 0.0 0.0 -0.0 0.0 0.0 2.61824e-14 3.3445e-14 8.36262e-14 79.1082 8.72318 -7.25459 -9.0199 -3.56956 15.973 -0.0119449 3.25277 0.457978 1.13253e-10 1.37668e-12 -4.03877e-10 1.94553e-10 2.29386e-13 -6.97342e-10 1.13255e-10 1.37522e-12 -4.03887e-10 7.73091 5.47488 0.417314 1.13252e-10 1.37453e-12 -4.03878e-10 2.90554 0.965183 0.102902 1.13258e-10 1.37444e-12 -4.03878e-10 10.2786 0.731801 0.0259123 1.13245e-10 1.37568e-12 -4.03863e-10 2.22167 -0.733487 -0.20892 2.62487e-14 3.34469e-14 8.34958e-14 -76.6903 23.9312 -2.18122 17.7662 -10.4406 -33.4884 0.349588 -16.5287 2.39122 3.79863e-10 -2.5431e-10 6.20799e-10 6.50197e-10 -4.53887e-10 1.0797e-09 3.79854e-10 -2.54314e-10 6.20812e-10 -7.73091 5.47488 -0.417314 3.79863e-10 -2.5431e-10 6.20804e-10 -2.90554 0.965183 -0.102902 3.79855e-10 -2.54309e-10 6.208e-10 -10.2786 0.731801 -0.0259123 3.79863e-10 -2.54309e-10 6.2079e-10 -2.22167 -0.733487 0.20892 -2.03217e-16 0.0 -3.88251e-19 6.44087 -9.3599 -0.157707 -0.110666 28.7075 0.483162 -5.57993 -7.07005 -24.5155 2.03217e-16 0.0 3.88251e-19 10.6892 -31.4149 7.87937 1.51341 65.2559 -1.85097 1.62377 2.37989 12.3345
-1.20191 84.3009 93.37080999999999 -4.0662 4.2402 0.6046 5.26954 6.85348 1.00491 2.6927 -4.6621 0.554651 3.76726 0.836244 -1.18366 -7.20864 -5.87639 -3.70103 -0.0 0.0 0.0 -0.0 0.0 0.0 -5.45248e-16 4.137e-14 7.29167e-14 78.9453 11.0872 -5.89278 -9.59651 -3.90024 17.0478 -0.000723522 1.40452 0.197357 6.28748e-10 1.15087e-10 -6.93811e-10 1.08557e-09 1.97808e-10 -1.20101e-09 6.28751e-10 1.15086e-10 -6.9382e-10 7.73091 5.47488 0.417314 6.28747e-10 1.15086e-10 -6.93809e-10 2.90554 0.965183 0.102902 6.28751e-10 1.15086e-10 -6.93813e-10 10.2786 0.731801 0.0259123 6.2874e-10 1.15088e-10 -6.93801e-10 2.22167 -0.733487 -0.20892 -4.81352e-16 4.13751e-14 7.27133e-14 -76.9807 24.2098 -1.08438 17.2181 -9.87139 -32.2823 0.29781 -15.3239 2.2073 7.84356e-10 2.66567e-10 8.02893e-10 1.34764e-09 4.43543e-10 1.3995e-09 7.84352e-10 2.66567e-10 8.02904e-10 -7.73091 5.47488 -0.417314 7.84356e-10 2.66567e-10 8.02899e-10 -2.90554 0.965183 -0.102902 7.84348e-10 2.66567e-10 8.02894e-10 -10.2786 0.731801 -0.0259123 7.84357e-10 2.66567e-10 8.02884e-10 -2.22167 -0.733487 0.20892 -2.03217e-16 0.0 -3.88251e-19 7.12204 -7.57523 -0.196226 -0.095593 27.7853 0.507515 -5.7523 -7.30594 -24.9131 2.03217e-16 0.0 3.88251e-19 11.3465 -32.7539 8.33625 1.40166 64.1009 -1.7538 1.90489 1.44711 13.0797
